# Blender v2.83.17 OBJ File: 'Arrow_Golden.blend'
# www.blender.org
mtllib Arrow_Golden.mtl
o Arrow_Golden_Cylinder.008
v 0.002481 -0.144601 -0.001069
v 0.025813 -0.168623 0.039692
v -0.002393 -0.144601 0.001721
v 0.020939 -0.168623 0.042482
v 0.002481 -0.034974 -0.001069
v 0.012932 -0.057103 0.017188
v -0.002393 -0.034974 0.001721
v 0.008058 -0.057103 0.019978
v -0.002393 -0.066115 0.001721
v -0.002393 -0.077840 0.001721
v -0.002393 -0.089565 0.001721
v -0.002393 -0.101290 0.001721
v -0.002393 -0.113014 0.001721
v -0.002393 -0.124739 0.001721
v 0.016727 -0.137304 0.035124
v 0.006708 -0.122097 0.017621
v 0.015990 -0.126024 0.033837
v 0.013003 -0.094847 0.028617
v 0.005751 -0.080831 0.015949
v 0.011468 -0.082061 0.025936
v 0.002481 -0.124739 -0.001069
v 0.002481 -0.113014 -0.001069
v 0.002481 -0.101290 -0.001069
v 0.002481 -0.089565 -0.001069
v 0.002481 -0.077840 -0.001069
v 0.002481 -0.066115 -0.001069
v 0.016342 -0.082061 0.023146
v 0.010626 -0.080831 0.013159
v 0.017877 -0.094847 0.025827
v 0.020865 -0.126024 0.031047
v 0.011582 -0.122097 0.014831
v 0.021601 -0.137304 0.032334
v -0.002167 -0.144601 -0.001614
v 0.021468 -0.168623 -0.042201
v 0.002687 -0.144601 0.001212
v 0.026321 -0.168623 -0.039375
v -0.002166 -0.034974 -0.001614
v 0.008420 -0.057103 -0.019793
v 0.002687 -0.034974 0.001212
v 0.013273 -0.057103 -0.016967
v 0.002687 -0.066115 0.001212
v 0.002687 -0.077840 0.001212
v 0.002687 -0.089565 0.001212
v 0.002687 -0.101290 0.001212
v 0.002687 -0.113014 0.001212
v 0.002687 -0.124739 0.001212
v 0.022055 -0.137304 -0.032048
v 0.011906 -0.122097 -0.014620
v 0.021309 -0.126024 -0.030767
v 0.018282 -0.094847 -0.025569
v 0.010937 -0.080831 -0.012956
v 0.016727 -0.082061 -0.022899
v -0.002167 -0.124739 -0.001614
v -0.002167 -0.113014 -0.001614
v -0.002167 -0.101290 -0.001614
v -0.002167 -0.089565 -0.001614
v -0.002167 -0.077840 -0.001614
v -0.002167 -0.066115 -0.001614
v 0.011874 -0.082061 -0.025726
v 0.006084 -0.080831 -0.015782
v 0.013429 -0.094847 -0.028395
v 0.016455 -0.126024 -0.033593
v 0.007053 -0.122097 -0.017446
v 0.017201 -0.137304 -0.034874
v -0.000315 -0.144601 0.002683
v -0.047281 -0.168623 0.002509
v -0.000294 -0.144601 -0.002933
v -0.047260 -0.168623 -0.003108
v -0.000315 -0.034974 0.002683
v -0.021351 -0.057103 0.002605
v -0.000294 -0.034974 -0.002933
v -0.021330 -0.057103 -0.003011
v -0.000294 -0.066115 -0.002933
v -0.000294 -0.077840 -0.002933
v -0.000294 -0.089565 -0.002933
v -0.000294 -0.101290 -0.002933
v -0.000294 -0.113014 -0.002933
v -0.000294 -0.124739 -0.002933
v -0.038782 -0.137304 -0.003076
v -0.018614 -0.122097 -0.003001
v -0.037299 -0.126024 -0.003071
v -0.031285 -0.094847 -0.003048
v -0.016688 -0.080831 -0.002994
v -0.028195 -0.082061 -0.003037
v -0.000315 -0.124739 0.002683
v -0.000315 -0.113014 0.002683
v -0.000315 -0.101290 0.002683
v -0.000315 -0.089565 0.002683
v -0.000315 -0.077840 0.002683
v -0.000315 -0.066115 0.002683
v -0.028216 -0.082061 0.002580
v -0.016709 -0.080831 0.002622
v -0.031306 -0.094847 0.002568
v -0.037320 -0.126024 0.002546
v -0.018635 -0.122097 0.002615
v -0.038803 -0.137304 0.002540
v 0.000000 0.545172 -0.007060
v 0.000000 -0.157352 -0.007060
v -0.006114 0.545172 -0.003530
v -0.006114 -0.157352 -0.003530
v -0.006114 0.545172 0.003530
v -0.006114 -0.157352 0.003530
v 0.000000 0.545172 0.007060
v 0.000000 -0.157352 0.007060
v 0.006114 0.545172 0.003530
v 0.006114 -0.157352 0.003530
v 0.006114 0.545172 -0.003530
v 0.006114 -0.157352 -0.003530
v 0.000000 0.557353 -0.007060
v -0.020435 0.557353 -0.003530
v -0.020435 0.557353 0.003530
v 0.000000 0.557353 0.007060
v 0.020435 0.557353 0.003530
v 0.020435 0.557353 -0.003530
v 0.000000 0.675848 -0.002195
v -0.002146 0.675848 -0.001098
v -0.002146 0.675848 0.001098
v 0.000000 0.675848 0.002195
v 0.002146 0.675848 0.001098
v 0.002146 0.675848 -0.001098
vn -0.5000 -0.0000 -0.8660
vn -1.0000 -0.0000 -0.0000
vn -0.5000 -0.0000 0.8660
vn 0.5000 0.0000 0.8660
vn 0.0000 -1.0000 0.0000
vn 1.0000 0.0000 0.0000
vn 0.5000 0.0000 -0.8660
vn -0.2262 -0.8903 -0.3952
vn -0.8679 -0.0000 0.4968
vn 0.3600 0.6890 0.6290
vn 0.8679 -0.0000 -0.4968
vn -0.4968 0.0000 -0.8679
vn 0.4795 0.2613 0.8377
vn 0.4790 0.2652 0.8368
vn -0.0528 -0.9943 -0.0922
vn 0.3441 0.7213 0.6011
vn 0.4878 0.1894 0.8522
vn -0.1022 -0.9786 -0.1785
vn 0.2991 0.7985 0.5225
vn -0.2292 -0.8903 0.3935
vn 0.8642 -0.0000 0.5032
vn 0.3647 0.6890 -0.6263
vn -0.8642 0.0000 -0.5032
vn -0.5032 0.0000 0.8642
vn 0.4857 0.2613 -0.8341
vn 0.4852 0.2652 -0.8332
vn -0.0535 -0.9943 0.0918
vn 0.3485 0.7213 -0.5985
vn 0.4941 0.1894 -0.8485
vn -0.1035 -0.9786 0.1777
vn 0.3030 0.7985 -0.5203
vn 0.4554 -0.8903 0.0017
vn 0.0037 -0.0000 -1.0000
vn -0.7248 0.6890 -0.0027
vn -0.0037 -0.0000 1.0000
vn 1.0000 0.0000 0.0037
vn -0.9652 0.2613 -0.0036
vn -0.9642 0.2652 -0.0036
vn 0.1063 -0.9943 0.0004
vn -0.6926 0.7213 -0.0026
vn -0.9819 0.1894 -0.0037
vn 0.2057 -0.9786 0.0008
vn -0.6020 0.7985 -0.0022
vn -0.2541 -0.1494 0.9556
vn -0.2005 0.0456 -0.9786
vn 0.2541 -0.1494 -0.9556
vn 0.2541 -0.1494 0.9556
vn -0.6479 -0.7617 0.0000
vn 0.6479 -0.7617 0.0000
vn -0.2541 -0.1494 -0.9556
vn 0.0000 1.0000 0.0000
vn 0.2005 0.0456 -0.9786
vn 0.2005 0.0456 0.9786
vn -0.9883 0.1525 0.0000
vn 0.9883 0.1525 0.0000
vn -0.2005 0.0456 0.9786
usemtl LightWood
s off
f 97//1 98//1 100//1 99//1
f 99//2 100//2 102//2 101//2
f 101//3 102//3 104//3 103//3
f 103//4 104//4 106//4 105//4
f 100//5 98//5 108//5 106//5 104//5 102//5
f 105//6 106//6 108//6 107//6
f 107//7 108//7 98//7 97//7
usemtl Golden
f 1//8 2//8 4//8 3//8
f 9//9 20//9 8//9 7//9
f 7//10 8//10 6//10 5//10
f 21//11 32//11 2//11 1//11
f 9//12 7//12 5//12 26//12
f 15//13 4//13 2//13 32//13
f 8//14 20//14 27//14 6//14
f 20//15 19//15 28//15 27//15
f 19//16 18//16 29//16 28//16
f 18//17 17//17 30//17 29//17
f 17//18 16//18 31//18 30//18
f 16//19 15//19 32//19 31//19
f 3//12 14//12 21//12 1//12
f 14//12 13//12 22//12 21//12
f 13//12 12//12 23//12 22//12
f 12//12 11//12 24//12 23//12
f 11//12 10//12 25//12 24//12
f 10//12 9//12 26//12 25//12
f 5//11 6//11 27//11 26//11
f 26//11 27//11 28//11 25//11
f 25//11 28//11 29//11 24//11
f 24//11 29//11 30//11 23//11
f 23//11 30//11 31//11 22//11
f 22//11 31//11 32//11 21//11
f 3//9 4//9 15//9 14//9
f 14//9 15//9 16//9 13//9
f 13//9 16//9 17//9 12//9
f 12//9 17//9 18//9 11//9
f 11//9 18//9 19//9 10//9
f 10//9 19//9 20//9 9//9
f 33//20 34//20 36//20 35//20
f 41//21 52//21 40//21 39//21
f 39//22 40//22 38//22 37//22
f 53//23 64//23 34//23 33//23
f 41//24 39//24 37//24 58//24
f 47//25 36//25 34//25 64//25
f 40//26 52//26 59//26 38//26
f 52//27 51//27 60//27 59//27
f 51//28 50//28 61//28 60//28
f 50//29 49//29 62//29 61//29
f 49//30 48//30 63//30 62//30
f 48//31 47//31 64//31 63//31
f 35//24 46//24 53//24 33//24
f 46//24 45//24 54//24 53//24
f 45//24 44//24 55//24 54//24
f 44//24 43//24 56//24 55//24
f 43//24 42//24 57//24 56//24
f 42//24 41//24 58//24 57//24
f 37//23 38//23 59//23 58//23
f 58//23 59//23 60//23 57//23
f 57//23 60//23 61//23 56//23
f 56//23 61//23 62//23 55//23
f 55//23 62//23 63//23 54//23
f 54//23 63//23 64//23 53//23
f 35//21 36//21 47//21 46//21
f 46//21 47//21 48//21 45//21
f 45//21 48//21 49//21 44//21
f 44//21 49//21 50//21 43//21
f 43//21 50//21 51//21 42//21
f 42//21 51//21 52//21 41//21
f 65//32 66//32 68//32 67//32
f 73//33 84//33 72//33 71//33
f 71//34 72//34 70//34 69//34
f 85//35 96//35 66//35 65//35
f 73//36 71//36 69//36 90//36
f 79//37 68//37 66//37 96//37
f 72//38 84//38 91//38 70//38
f 84//39 83//39 92//39 91//39
f 83//40 82//40 93//40 92//40
f 82//41 81//41 94//41 93//41
f 81//42 80//42 95//42 94//42
f 80//43 79//43 96//43 95//43
f 67//36 78//36 85//36 65//36
f 78//36 77//36 86//36 85//36
f 77//36 76//36 87//36 86//36
f 76//36 75//36 88//36 87//36
f 75//36 74//36 89//36 88//36
f 74//36 73//36 90//36 89//36
f 69//35 70//35 91//35 90//35
f 90//35 91//35 92//35 89//35
f 89//35 92//35 93//35 88//35
f 88//35 93//35 94//35 87//35
f 87//35 94//35 95//35 86//35
f 86//35 95//35 96//35 85//35
f 67//33 68//33 79//33 78//33
f 78//33 79//33 80//33 77//33
f 77//33 80//33 81//33 76//33
f 76//33 81//33 82//33 75//33
f 75//33 82//33 83//33 74//33
f 74//33 83//33 84//33 73//33
f 101//44 103//44 112//44 111//44
f 109//45 110//45 116//45 115//45
f 107//46 97//46 109//46 114//46
f 103//47 105//47 113//47 112//47
f 99//48 101//48 111//48 110//48
f 105//49 107//49 114//49 113//49
f 97//50 99//50 110//50 109//50
f 115//51 116//51 117//51 118//51 119//51 120//51
f 114//52 109//52 115//52 120//52
f 112//53 113//53 119//53 118//53
f 110//54 111//54 117//54 116//54
f 113//55 114//55 120//55 119//55
f 111//56 112//56 118//56 117//56
