# Created by Kenney (www.kenney.nl)

mtllib pitchfork.mtl

v 2 11.5 -0.5
v 2.5 12 -0.5
v 2 11.5 0.5
v 2.5 12 0.5
v 3 11.5 -0.5
v 3 11.5 0.5
v 2 11 -0.5
v 3 11 -0.5
v 3 11 0.5
v 2 11 0.5
v 5.960464E-08 11.5 -0.5
v 0.5 12 -0.5
v 5.960464E-08 11.5 0.5
v 0.5 12 0.5
v 1 11.5 -0.5
v 1 11.5 0.5
v 5.960464E-08 11 -0.5
v 1 11 -0.5
v 1 11 0.5
v 5.960464E-08 11 0.5
v -2 11.5 -0.5
v -1.5 12 -0.5
v -2 11.5 0.5
v -1.5 12 0.5
v -1 11.5 -0.5
v -1 11.5 0.5
v -2 11 -0.5
v -1 11 -0.5
v -1 11 0.5
v -2 11 0.5
v 0.5 -14 -0.5
v 0.6294095 -13.98296 -0.5
v 0.3705904 -13.98296 -0.5
v 0.25 -13.93301 -0.5
v 0.75 -13.93301 -0.5
v 0.1464466 -13.85355 -0.5
v 0.8535534 -13.85355 -0.5
v 0.06698728 -13.75 -0.5
v 0.9330127 -13.75 -0.5
v 0.01703709 -13.62941 -0.5
v 0.9829629 -13.62941 -0.5
v 0 -13.5 -0.5
v 1 -13.5 -0.5
v 0 -13 -0.5
v 1 -13 -0.5
v 0 -13.5 0.5
v 0 -13 0.5
v 1 -13 0.5
v 1 -13.5 0.5
v 0.01703709 -13.62941 0.5
v 0.5 -14 0.5
v 0.3705904 -13.98296 0.5
v 0.6294095 -13.98296 0.5
v 0.25 -13.93301 0.5
v 0.75 -13.93301 0.5
v 0.1464466 -13.85355 0.5
v 0.8535534 -13.85355 0.5
v 0.06698728 -13.75 0.5
v 0.9330127 -13.75 0.5
v 0.9829629 -13.62941 0.5
v 2 7 0.5
v 2 7 -0.5
v 1 7 0.5
v 1 7 -0.5
v 1 8 -0.5
v 1 8 0.5
v 2 8 -0.5
v 2 8 0.5
v 0 7 0.5
v 0 7 -0.5
v -1 7 0.5
v -1 7 -0.5
v -1 8 -0.5
v -1 8 0.5
v 0 8 -0.5
v 0 8 0.5
v 0 4 -0.5
v 0 4 0.5
v 1 4 -0.5
v 1 4 0.5
v 3 8 0.5
v 3 8 -0.5
v 0 11 -0.5
v 0 11 0.5
v -2 8 0.5
v -2 8 -0.5
v 3 7 0.5
v 3 7 -0.5
v -2 7 0.5
v -2 7 -0.5
v 3 6 1
v 3 6 -1
v -2 6 1
v -2 6 -1
v -2 7 -1
v -2 7 1
v 3 7 -1
v 3 7 1
v 2 5 1
v 2 5 -1
v -1 5 1
v -1 5 -1
v -1 6 -1
v -1 6 1
v 2 6 -1
v 2 6 1
v 1 4 1
v 1 4 -1
v 0 4 1
v 0 4 -1
v 0 5 -1
v 0 5 1
v 1 5 -1
v 1 5 1

vn -0.7071068 0.7071068 0
vn 0.7071068 0.7071068 0
vn 0 0 -1
vn 0 -1 0
vn 1 0 0
vn -1 0 0
vn 0 0 1
vn 0 1 0
vn -0.9914449 -0.1305262 0
vn -0.9659258 -0.258819 0
vn 0.9914449 -0.1305262 0
vn 0.9659258 -0.258819 0
vn -0.258819 -0.9659258 0
vn 0.258819 -0.9659258 0
vn -0.5 -0.8660254 0
vn 0.5 -0.8660254 0
vn -0.7071068 -0.7071068 0
vn 0.7071068 -0.7071068 0
vn -0.8660254 -0.5 0
vn 0.8660254 -0.5 0

vt 0 0
vt NaN 0
vt NaN 0
vt NaN 0
vt NaN 0
vt NaN 0
vt NaN 0
vt NaN 0
vt NaN 0
vt NaN 0
vt NaN 0
vt NaN 0
vt NaN 0
vt NaN 0
vt NaN 0
vt NaN 0
vt NaN 0
vt NaN 0
vt NaN 0
vt NaN 0
vt NaN 0
vt NaN 0
vt NaN 0
vt NaN 0
vt NaN 0
vt NaN 0
vt NaN 0
vt NaN 0
vt NaN 0
vt NaN 0
vt NaN 0
vt NaN 0
vt NaN 0
vt NaN 0
vt NaN 0
vt NaN 0
vt NaN 0
vt NaN 0
vt NaN 0
vt 0 NaN
vt 0 NaN
vt 0 NaN
vt 0 NaN
vt 0 NaN
vt 0 NaN
vt 0 NaN
vt 0 NaN
vt 0 NaN
vt 0 NaN
vt 0 NaN
vt 0 NaN
vt 0 NaN
vt 0 NaN
vt 0 NaN
vt 0 NaN
vt 0 NaN
vt 0 NaN
vt 0 NaN
vt 0 NaN
vt 0 NaN
vt 0 NaN
vt 0 NaN
vt 0 NaN
vt 0 NaN
vt 0 NaN
vt 0 NaN
vt 0 NaN
vt 0 NaN
vt 0 NaN
vt 0 NaN
vt 0 NaN
vt 0 NaN
vt 0 NaN
vt 0 NaN
vt 0 NaN
vt 0 NaN
vt 0 NaN
vt 0 NaN
vt 0 NaN
vt 0 NaN
vt 0 NaN
vt 0 NaN
vt 0 NaN
vt 0 NaN
vt 0 NaN
vt 0 NaN
vt 0 NaN
vt 0 NaN
vt 0 NaN
vt 0 NaN
vt 0 NaN
vt 0 NaN
vt 0 NaN
vt 0 NaN
vt 0 NaN
vt 0 NaN
vt 0 NaN
vt 0 NaN
vt 0 NaN
vt 0 NaN
vt 0 NaN
vt 0 NaN
vt 0 NaN
vt 0 NaN
vt 0 NaN
vt 0 NaN
vt 0 NaN
vt 0 NaN
vt 0 NaN
vt 0 NaN
vt 0 NaN
vt 0 NaN
vt 0 NaN
vt 0 NaN
vt 0 NaN
vt 0 NaN
vt 0 NaN
vt 0 NaN
vt 0 NaN
vt 0 NaN
vt 0 NaN
vt 0 NaN
vt 0 NaN
vt 0 NaN
vt 0 NaN
vt 0 NaN
vt 0 NaN
vt 0 NaN
vt 0 NaN
vt 0 NaN
vt 0 NaN
vt 0 NaN
vt 0 NaN
vt 0 NaN
vt 0 NaN
vt 0 NaN
vt 0 NaN
vt 0 NaN
vt 0 NaN

usemtl color8

f 3/1/1 2/2/1 1/1/1
f 2/2/1 3/1/1 4/1/1
f 4/1/2 5/3/2 2/1/2
f 5/3/2 4/1/2 6/1/2
f 1/1/3 8/4/3 7/1/3
f 8/4/3 1/1/3 5/1/3
f 5/1/3 1/1/3 2/1/3
f 10/1/4 8/5/4 9/1/4
f 8/5/4 10/1/4 7/1/4
f 6/1/5 8/6/5 5/1/5
f 8/6/5 6/1/5 9/1/5
f 10/1/6 1/7/6 7/1/6
f 1/7/6 10/1/6 3/1/6
f 9/1/7 3/8/7 10/1/7
f 3/8/7 9/1/7 6/1/7
f 3/8/7 6/1/7 4/1/7
f 13/1/1 12/9/1 11/1/1
f 12/9/1 13/1/1 14/1/1
f 14/1/2 15/10/2 12/1/2
f 15/10/2 14/1/2 16/1/2
f 11/1/3 18/11/3 17/1/3
f 18/11/3 11/1/3 15/1/3
f 15/1/3 11/1/3 12/1/3
f 20/1/4 18/12/4 19/1/4
f 18/12/4 20/1/4 17/1/4
f 16/1/5 18/13/5 15/1/5
f 18/13/5 16/1/5 19/1/5
f 20/1/6 11/14/6 17/1/6
f 11/14/6 20/1/6 13/1/6
f 19/1/7 13/15/7 20/1/7
f 13/15/7 19/1/7 16/1/7
f 13/15/7 16/1/7 14/1/7
f 23/1/1 22/16/1 21/1/1
f 22/16/1 23/1/1 24/1/1
f 24/1/2 25/17/2 22/1/2
f 25/17/2 24/1/2 26/1/2
f 21/1/3 28/18/3 27/1/3
f 28/18/3 21/1/3 25/1/3
f 25/1/3 21/1/3 22/1/3
f 30/1/4 28/19/4 29/1/4
f 28/19/4 30/1/4 27/1/4
f 26/1/5 28/20/5 25/1/5
f 28/20/5 26/1/5 29/1/5
f 30/1/6 21/21/6 27/1/6
f 21/21/6 30/1/6 23/1/6
f 29/1/7 23/22/7 30/1/7
f 23/22/7 29/1/7 26/1/7
f 23/22/7 26/1/7 24/1/7

usemtl color2

f 33/1/3 32/23/3 31/1/3
f 32/23/3 33/1/3 34/1/3
f 32/23/3 34/1/3 35/1/3
f 35/1/3 34/1/3 36/1/3
f 35/1/3 36/1/3 37/1/3
f 37/1/3 36/1/3 38/1/3
f 37/1/3 38/1/3 39/1/3
f 39/1/3 38/1/3 40/1/3
f 39/1/3 40/1/3 41/1/3
f 41/1/3 40/1/3 42/1/3
f 41/1/3 42/1/3 43/1/3
f 43/1/3 42/1/3 44/1/3
f 43/1/3 44/1/3 45/1/3
f 46/1/6 44/24/6 42/1/6
f 44/24/6 46/1/6 47/1/6
f 44/1/8 48/25/8 45/1/8
f 48/25/8 44/1/8 47/1/8
f 48/1/5 43/26/5 45/1/5
f 43/26/5 48/1/5 49/1/5
f 42/1/9 50/27/10 46/1/9
f 49/1/11 41/28/12 43/1/11
f 53/1/7 52/29/7 51/1/7
f 52/29/7 53/1/7 54/1/7
f 54/1/7 53/1/7 55/1/7
f 54/1/7 55/1/7 56/1/7
f 56/1/7 55/1/7 57/1/7
f 56/1/7 57/1/7 58/1/7
f 58/1/7 57/1/7 59/1/7
f 58/1/7 59/1/7 50/1/7
f 50/1/7 59/1/7 60/1/7
f 50/1/7 60/1/7 46/1/7
f 46/1/7 60/1/7 49/1/7
f 46/1/7 49/1/7 47/1/7
f 47/1/7 49/1/7 48/1/7
f 52/1/13 31/30/4 51/1/4
f 51/1/4 32/31/14 53/1/14
f 54/1/15 33/32/13 52/1/13
f 53/1/14 35/33/16 55/1/16
f 56/1/17 34/34/15 54/1/15
f 55/1/16 37/35/18 57/1/18
f 56/1/17 38/36/19 36/1/17
f 37/35/18 59/37/20 57/1/18
f 34/34/15 56/1/17 36/1/17
f 37/35/18 55/1/16 35/33/16
f 33/32/13 54/1/15 34/34/15
f 35/33/16 53/1/14 32/31/14
f 31/30/4 52/1/13 33/32/13
f 32/31/14 51/1/4 31/30/4
f 59/37/20 37/35/18 39/1/20
f 39/1/20 60/38/12 59/37/20
f 38/36/19 56/1/17 58/1/19
f 58/1/19 40/39/10 38/36/19
f 60/38/12 39/1/20 41/28/12
f 41/28/12 49/1/11 60/38/12
f 40/39/10 58/1/19 50/27/10
f 50/27/10 42/1/9 40/39/10
f 63/1/4 62/1/4 61/40/4
f 62/1/4 63/1/4 64/41/4
f 63/1/6 65/1/6 64/42/6
f 65/1/6 63/1/6 66/43/6
f 65/1/3 62/1/3 64/44/3
f 62/1/3 65/1/3 67/45/3
f 68/1/7 63/1/7 61/46/7
f 63/1/7 68/1/7 66/47/7
f 68/1/5 62/1/5 67/48/5
f 62/1/5 68/1/5 61/49/5
f 65/1/8 68/1/8 67/50/8
f 68/1/8 65/1/8 66/51/8
f 71/1/4 70/1/4 69/52/4
f 70/1/4 71/1/4 72/53/4
f 71/1/6 73/1/6 72/54/6
f 73/1/6 71/1/6 74/55/6
f 73/1/3 70/1/3 72/56/3
f 70/1/3 73/1/3 75/57/3
f 76/1/7 71/1/7 69/58/7
f 71/1/7 76/1/7 74/59/7
f 76/1/5 70/1/5 75/60/5
f 70/1/5 76/1/5 69/61/5
f 73/1/8 76/1/8 75/62/8
f 76/1/8 73/1/8 74/63/8
f 47/1/4 45/1/4 48/64/4
f 45/1/4 47/1/4 44/65/4
f 47/1/6 77/1/6 44/24/6
f 77/1/6 47/1/6 78/66/6
f 77/1/3 45/1/3 44/1/3
f 45/1/3 77/1/3 79/67/3
f 80/1/7 47/1/7 48/1/7
f 47/1/7 80/1/7 78/68/7
f 80/1/5 45/1/5 79/69/5
f 45/1/5 80/1/5 48/1/5
f 77/1/8 80/1/8 79/70/8
f 80/1/8 77/1/8 78/71/8

usemtl color7

f 68/1/4 82/1/4 81/72/4
f 82/1/4 68/1/4 67/73/4
f 68/1/6 7/1/6 67/74/6
f 7/1/6 68/1/6 10/1/6
f 7/1/3 82/1/3 67/45/3
f 82/1/3 7/1/3 8/4/3
f 9/1/7 68/1/7 81/75/7
f 68/1/7 9/1/7 10/1/7
f 9/1/5 82/1/5 8/6/5
f 82/1/5 9/1/5 81/76/5
f 7/1/8 9/1/8 8/77/8
f 9/1/8 7/1/8 10/78/8
f 76/1/4 65/1/4 66/79/4
f 65/1/4 76/1/4 75/80/4
f 76/1/6 17/1/6 75/81/6
f 17/1/6 76/1/6 20/1/6
f 17/1/3 65/1/3 75/57/3
f 65/1/3 17/1/3 18/11/3
f 19/1/7 76/1/7 66/47/7
f 76/1/7 19/1/7 20/1/7
f 19/1/5 65/1/5 18/13/5
f 65/1/5 19/1/5 66/82/5
f 83/1/8 19/1/8 18/83/8
f 19/1/8 83/1/8 84/84/8
f 85/1/4 73/1/4 74/85/4
f 73/1/4 85/1/4 86/86/4
f 85/1/6 27/1/6 86/87/6
f 27/1/6 85/1/6 30/1/6
f 27/1/3 73/1/3 86/88/3
f 73/1/3 27/1/3 28/18/3
f 29/1/7 85/1/7 74/59/7
f 85/1/7 29/1/7 30/1/7
f 29/1/5 73/1/5 28/20/5
f 73/1/5 29/1/5 74/89/5
f 27/1/8 29/1/8 28/90/8
f 29/1/8 27/1/8 30/91/8

usemtl color6

f 61/40/4 88/1/4 87/92/4
f 88/1/4 61/40/4 62/1/4
f 61/1/6 67/74/6 62/93/6
f 67/74/6 61/1/6 68/1/6
f 67/45/3 88/1/3 62/1/3
f 88/1/3 67/45/3 82/1/3
f 81/75/7 61/46/7 87/94/7
f 61/46/7 81/75/7 68/1/7
f 81/76/5 88/1/5 82/1/5
f 88/1/5 81/76/5 87/95/5
f 67/50/8 81/1/8 82/96/8
f 81/1/8 67/50/8 68/1/8
f 69/52/4 64/41/4 63/1/4
f 64/41/4 69/52/4 70/1/4
f 69/1/6 75/81/6 70/97/6
f 75/81/6 69/1/6 76/1/6
f 75/57/3 64/44/3 70/1/3
f 64/44/3 75/57/3 65/1/3
f 66/47/7 69/58/7 63/1/7
f 69/58/7 66/47/7 76/1/7
f 66/82/5 64/1/5 65/1/5
f 64/1/5 66/82/5 63/98/5
f 75/62/8 66/51/8 65/1/8
f 66/51/8 75/62/8 76/1/8
f 89/1/4 72/53/4 71/1/4
f 72/53/4 89/1/4 90/99/4
f 89/1/6 86/87/6 90/100/6
f 86/87/6 89/1/6 85/1/6
f 86/88/3 72/56/3 90/101/3
f 72/56/3 86/88/3 73/1/3
f 74/59/7 89/1/7 71/1/7
f 89/1/7 74/59/7 85/1/7
f 74/89/5 72/1/5 73/1/5
f 72/1/5 74/89/5 71/102/5
f 86/1/8 74/63/8 73/1/8
f 74/63/8 86/1/8 85/103/8

usemtl color5

f 93/1/4 92/1/4 91/104/4
f 92/1/4 93/1/4 94/105/4
f 93/1/6 95/1/6 94/106/6
f 95/1/6 93/1/6 96/107/6
f 95/1/3 92/1/3 94/108/3
f 92/1/3 95/1/3 97/109/3
f 98/1/7 93/1/7 91/110/7
f 93/1/7 98/1/7 96/111/7
f 98/1/5 92/1/5 97/112/5
f 92/1/5 98/1/5 91/113/5
f 95/1/8 98/1/8 97/114/8
f 98/1/8 95/1/8 96/115/8

usemtl color4

f 101/1/4 100/1/4 99/116/4
f 100/1/4 101/1/4 102/117/4
f 101/1/6 103/1/6 102/118/6
f 103/1/6 101/1/6 104/119/6
f 103/1/3 100/1/3 102/120/3
f 100/1/3 103/1/3 105/121/3
f 106/1/7 101/1/7 99/122/7
f 101/1/7 106/1/7 104/123/7
f 106/1/5 100/1/5 105/124/5
f 100/1/5 106/1/5 99/125/5
f 103/1/8 106/1/8 105/126/8
f 106/1/8 103/1/8 104/127/8
f 109/1/4 108/1/4 107/128/4
f 108/1/4 109/1/4 110/129/4
f 109/1/6 111/1/6 110/130/6
f 111/1/6 109/1/6 112/131/6
f 111/1/3 108/1/3 110/132/3
f 108/1/3 111/1/3 113/133/3
f 114/1/7 109/1/7 107/134/7
f 109/1/7 114/1/7 112/135/7
f 114/1/5 108/1/5 113/136/5
f 108/1/5 114/1/5 107/137/5
f 111/1/8 114/1/8 113/138/8
f 114/1/8 111/1/8 112/139/8

