# Created by Kenney (www.kenney.nl)

mtllib simpleSword.mtl

v 1 9 -0.5
v 1 10 -0.5
v 1 9 0.5
v 1 10 0.5
v 2 9 -0.5
v 2 9 0.5
v 0 10 -0.5
v 0 11 -0.5
v 0 10 0.5
v 0 11 0.5
v -1 10 0.5
v -1 10 -0.5
v -1 9 0.5
v -2 9 0.5
v -2 9 -0.5
v -1 9 -0.5
v 1 -6 0.5
v 1 -6 -0.5
v -1 -6 0.5
v -1 -6 -0.5
v 2 -6 0.5
v 2 -6 -0.5
v -2 -6 0.5
v -2 -6 -0.5
v 3 -7 1
v 3 -7 -1
v 2 -7 1
v 2 -7 -1
v 2 -6 -1
v 2 -6 1
v 3 -6 -1
v 3 -6 1
v 2 -7 1.5
v 2 -7 -1.5
v -2 -7 1.5
v -2 -7 -1.5
v -2 -6 -1.5
v -2 -6 1.5
v 2 -6 -1.5
v 2 -6 1.5
v -2 -7 1
v -2 -7 -1
v -3 -7 1
v -3 -7 -1
v -3 -6 -1
v -3 -6 1
v -2 -6 -1
v -2 -6 1
v 2 -13 1
v 2 -13 -1
v 1 -13 1
v 1 -13 -1
v 1 -12 -1
v 1 -12 1
v 2 -12 -1
v 2 -12 1
v 1 -13 1.5
v 1 -13 -1.5
v -1 -13 1.5
v -1 -13 -1.5
v -1 -12 -1.5
v -1 -12 1.5
v 1 -12 -1.5
v 1 -12 1.5
v -1 -13 1
v -1 -13 -1
v -2 -13 1
v -2 -13 -1
v -2 -12 -1
v -2 -12 1
v -1 -12 -1
v -1 -12 1
v -1 -7 -1
v -1 -7 1
v 1 -7 -1
v 1 -7 1

vn -1 0 0
vn 0 0 -1
vn 0.7071068 0.7071068 0
vn 0 0 1
vn 0 -1 0
vn 1 0 0
vn -0.7071068 0.7071068 0
vn 0 1 0

vt 0 0
vt NaN 0
vt NaN 0
vt NaN 0
vt NaN 0
vt NaN 0
vt NaN 0
vt NaN 0
vt NaN 0
vt 0 NaN
vt 0 NaN
vt 0 NaN
vt 0 NaN
vt 0 NaN
vt 0 NaN
vt 0 NaN
vt 0 NaN
vt 0 NaN
vt 0 NaN
vt 0 NaN
vt 0 NaN
vt 0 NaN
vt 0 NaN
vt 0 NaN
vt 0 NaN
vt 0 NaN
vt 0 NaN
vt 0 NaN
vt 0 NaN
vt 0 NaN
vt 0 NaN
vt 0 NaN
vt 0 NaN
vt 0 NaN
vt 0 NaN
vt 0 NaN
vt 0 NaN
vt 0 NaN
vt 0 NaN
vt 0 NaN
vt 0 NaN
vt 0 NaN
vt 0 NaN
vt 0 NaN
vt 0 NaN
vt 0 NaN
vt 0 NaN
vt 0 NaN
vt 0 NaN
vt 0 NaN
vt 0 NaN
vt 0 NaN
vt 0 NaN
vt 0 NaN
vt 0 NaN
vt 0 NaN
vt 0 NaN
vt 0 NaN
vt 0 NaN
vt 0 NaN
vt 0 NaN
vt 0 NaN
vt 0 NaN
vt 0 NaN
vt 0 NaN
vt 0 NaN
vt 0 NaN
vt 0 NaN
vt 0 NaN
vt 0 NaN
vt 0 NaN
vt 0 NaN
vt 0 NaN
vt 0 NaN
vt 0 NaN
vt 0 NaN
vt 0 NaN
vt 0 NaN
vt 0 NaN
vt 0 NaN
vt 0 NaN
vt 0 NaN
vt 0 NaN
vt 0 NaN
vt 0 NaN
vt 0 NaN
vt 0 NaN
vt 0 NaN
vt 0 NaN
vt 0 NaN
vt 0 NaN
vt 0 NaN
vt 0 NaN
vt 0 NaN
vt 0 NaN
vt 0 NaN
vt 0 NaN
vt 0 NaN
vt 0 NaN
vt 0 NaN
vt 0 NaN
vt 0 NaN
vt 0 NaN
vt 0 NaN
vt 0 NaN
vt 0 NaN
vt 0 NaN
vt 0 NaN
vt 0 NaN
vt 0 NaN
vt 0 NaN
vt 0 NaN
vt 0 NaN
vt 0 NaN
vt 0 NaN
vt 0 NaN
vt 0 NaN
vt 0 NaN
vt 0 NaN
vt 0 NaN
vt 0 NaN
vt 0 NaN
vt 0 NaN
vt 0 NaN
vt 0 NaN
vt 0 NaN
vt 0 NaN
vt 0 NaN

usemtl color13

f 3/1/1 2/2/1 1/1/1
f 2/2/1 3/1/1 4/1/1
f 2/1/2 5/3/2 1/1/2
f 2/1/3 6/4/3 5/1/3
f 6/4/3 2/1/3 4/1/3
f 4/1/4 3/5/4 6/1/4
f 3/1/5 5/6/5 6/1/5
f 5/6/5 3/1/5 1/1/5
f 9/1/1 8/7/1 7/1/1
f 8/7/1 9/1/1 10/1/1
f 8/1/2 2/1/2 7/1/2
f 8/1/3 4/1/3 2/1/3
f 4/1/3 8/1/3 10/1/3
f 10/1/4 9/8/4 4/1/4
f 9/1/5 2/9/5 4/1/5
f 2/9/5 9/1/5 7/1/5
f 10/1/4 11/1/4 9/8/4
f 8/1/2 7/1/2 12/10/2
f 11/1/5 7/1/5 9/1/5
f 7/1/5 11/1/5 12/11/5
f 10/1/6 7/1/6 8/12/6
f 7/1/6 10/1/6 9/13/6
f 11/1/7 8/1/7 12/14/7
f 8/1/7 11/1/7 10/15/7
f 11/1/4 14/1/4 13/16/4
f 12/10/2 16/1/2 15/17/2
f 14/1/5 16/1/5 13/18/5
f 16/1/5 14/1/5 15/19/5
f 11/1/6 16/1/6 12/20/6
f 16/1/6 11/1/6 13/21/6
f 14/1/7 12/14/7 15/22/7
f 12/14/7 14/1/7 11/1/7
f 19/1/5 18/1/5 17/23/5
f 18/1/5 19/1/5 20/24/5
f 19/1/1 12/1/1 20/25/1
f 12/1/1 19/1/1 11/26/1
f 12/10/2 18/1/2 20/27/2
f 18/1/2 12/10/2 2/1/2
f 4/1/4 19/1/4 17/28/4
f 19/1/4 4/1/4 11/1/4
f 4/1/6 18/1/6 2/29/6
f 18/1/6 4/1/6 17/30/6
f 12/1/8 4/1/8 2/31/8
f 4/1/8 12/1/8 11/32/8
f 17/23/5 22/1/5 21/33/5
f 22/1/5 17/23/5 18/1/5
f 17/1/1 1/1/1 18/34/1
f 1/1/1 17/1/1 3/1/1
f 1/1/2 22/1/2 18/1/2
f 22/1/2 1/1/2 5/3/2
f 6/1/4 17/28/4 21/35/4
f 17/28/4 6/1/4 3/5/4
f 6/1/6 22/1/6 5/36/6
f 22/1/6 6/1/6 21/37/6
f 1/1/8 6/1/8 5/38/8
f 6/1/8 1/1/8 3/39/8
f 23/1/5 20/24/5 19/1/5
f 20/24/5 23/1/5 24/40/5
f 23/1/1 15/1/1 24/41/1
f 15/1/1 23/1/1 14/42/1
f 15/17/2 20/27/2 24/43/2
f 20/27/2 15/17/2 16/1/2
f 13/16/4 23/1/4 19/1/4
f 23/1/4 13/16/4 14/1/4
f 13/21/6 20/1/6 16/1/6
f 20/1/6 13/21/6 19/44/6
f 15/1/8 13/1/8 16/45/8
f 13/1/8 15/1/8 14/46/8

usemtl color12

f 27/1/5 26/1/5 25/47/5
f 26/1/5 27/1/5 28/48/5
f 27/1/1 29/1/1 28/49/1
f 29/1/1 27/1/1 30/50/1
f 29/1/2 26/1/2 28/51/2
f 26/1/2 29/1/2 31/52/2
f 32/1/4 27/1/4 25/53/4
f 27/1/4 32/1/4 30/54/4
f 32/1/6 26/1/6 31/55/6
f 26/1/6 32/1/6 25/56/6
f 29/1/8 32/1/8 31/57/8
f 32/1/8 29/1/8 30/58/8
f 35/1/5 34/1/5 33/59/5
f 34/1/5 35/1/5 36/60/5
f 35/1/1 37/1/1 36/61/1
f 37/1/1 35/1/1 38/62/1
f 37/1/2 34/1/2 36/63/2
f 34/1/2 37/1/2 39/64/2
f 40/1/4 35/1/4 33/65/4
f 35/1/4 40/1/4 38/66/4
f 40/1/6 34/1/6 39/67/6
f 34/1/6 40/1/6 33/68/6
f 37/1/8 40/1/8 39/69/8
f 40/1/8 37/1/8 38/70/8
f 43/1/5 42/1/5 41/71/5
f 42/1/5 43/1/5 44/72/5
f 43/1/1 45/1/1 44/73/1
f 45/1/1 43/1/1 46/74/1
f 45/1/2 42/1/2 44/75/2
f 42/1/2 45/1/2 47/76/2
f 48/1/4 43/1/4 41/77/4
f 43/1/4 48/1/4 46/78/4
f 48/1/6 42/1/6 47/79/6
f 42/1/6 48/1/6 41/80/6
f 45/1/8 48/1/8 47/81/8
f 48/1/8 45/1/8 46/82/8
f 51/1/5 50/1/5 49/83/5
f 50/1/5 51/1/5 52/84/5
f 51/1/1 53/1/1 52/85/1
f 53/1/1 51/1/1 54/86/1
f 53/1/2 50/1/2 52/87/2
f 50/1/2 53/1/2 55/88/2
f 56/1/4 51/1/4 49/89/4
f 51/1/4 56/1/4 54/90/4
f 56/1/6 50/1/6 55/91/6
f 50/1/6 56/1/6 49/92/6
f 53/1/8 56/1/8 55/93/8
f 56/1/8 53/1/8 54/94/8
f 59/1/5 58/1/5 57/95/5
f 58/1/5 59/1/5 60/96/5
f 59/1/1 61/1/1 60/97/1
f 61/1/1 59/1/1 62/98/1
f 61/1/2 58/1/2 60/99/2
f 58/1/2 61/1/2 63/100/2
f 64/1/4 59/1/4 57/101/4
f 59/1/4 64/1/4 62/102/4
f 64/1/6 58/1/6 63/103/6
f 58/1/6 64/1/6 57/104/6
f 61/1/8 64/1/8 63/105/8
f 64/1/8 61/1/8 62/106/8
f 67/1/5 66/1/5 65/107/5
f 66/1/5 67/1/5 68/108/5
f 67/1/1 69/1/1 68/109/1
f 69/1/1 67/1/1 70/110/1
f 69/1/2 66/1/2 68/111/2
f 66/1/2 69/1/2 71/112/2
f 72/1/4 67/1/4 65/113/4
f 67/1/4 72/1/4 70/114/4
f 72/1/6 66/1/6 71/115/6
f 66/1/6 72/1/6 65/116/6
f 69/1/8 72/1/8 71/117/8
f 72/1/8 69/1/8 70/118/8

usemtl color2

f 72/1/5 53/1/5 54/119/5
f 53/1/5 72/1/5 71/120/5
f 72/1/1 73/1/1 71/121/1
f 73/1/1 72/1/1 74/122/1
f 73/1/2 53/1/2 71/112/2
f 53/1/2 73/1/2 75/123/2
f 76/1/4 72/1/4 54/90/4
f 72/1/4 76/1/4 74/124/4
f 76/1/6 53/1/6 75/125/6
f 53/1/6 76/1/6 54/126/6
f 73/1/8 76/1/8 75/127/8
f 76/1/8 73/1/8 74/128/8

